<?xml version="1.0" encoding="UTF-8" standalone="no"?>
<!-- Created with Inkscape (http://www.inkscape.org/) -->

<svg
   width="15.809111mm"
   height="15.737412mm"
   viewBox="0 0 15.809111 15.737412"
   version="1.1"
   id="svg1"
   inkscape:version="1.3.2 (091e20e, 2023-11-25, custom)"
   sodipodi:docname="autobot.svg"
   xml:space="preserve"
   inkscape:export-filename="autobot_2.png"
   inkscape:export-xdpi="96.000938"
   inkscape:export-ydpi="96.000938"
   xmlns:inkscape="http://www.inkscape.org/namespaces/inkscape"
   xmlns:sodipodi="http://sodipodi.sourceforge.net/DTD/sodipodi-0.dtd"
   xmlns="http://www.w3.org/2000/svg"
   xmlns:svg="http://www.w3.org/2000/svg"><sodipodi:namedview
     id="namedview1"
     pagecolor="#ffffff"
     bordercolor="#000000"
     borderopacity="0.25"
     inkscape:showpageshadow="2"
     inkscape:pageopacity="0.0"
     inkscape:pagecheckerboard="0"
     inkscape:deskcolor="#d1d1d1"
     inkscape:document-units="mm"
     inkscape:zoom="7.5692168"
     inkscape:cx="22.195163"
     inkscape:cy="26.48887"
     inkscape:window-width="1920"
     inkscape:window-height="986"
     inkscape:window-x="-11"
     inkscape:window-y="-11"
     inkscape:window-maximized="1"
     inkscape:current-layer="layer1" /><defs
     id="defs1"><filter
       inkscape:label="Sharpen"
       inkscape:menu="Image Effects"
       inkscape:menu-tooltip="Sharpen edges and boundaries within the object, force=0.15"
       style="color-interpolation-filters:sRGB"
       id="filter3"
       x="-0.0042681855"
       y="-0.0042777312"
       width="1.0085331"
       height="1.0088005"><feConvolveMatrix
         order="3 3"
         kernelMatrix="0 -0.15 0 -0.15 1.6 -0.15 0 -0.15 0"
         divisor="1"
         in="SourceGraphic"
         targetX="1"
         targetY="1"
         id="feConvolveMatrix3" /></filter></defs><g
     inkscape:label="Layer 1"
     inkscape:groupmode="layer"
     id="layer1"
     transform="translate(-9.0287147,-53.948485)"><rect
       style="fill:#000000;fill-opacity:1;stroke:none;stroke-width:1.42219;stroke-linecap:round;stroke-linejoin:round"
       id="rect1"
       width="15.875"
       height="15.875"
       x="9.0287151"
       y="53.983284" /><path
       style="fill:none;stroke:#ffffff;stroke-width:0.529167;stroke-dasharray:none;stroke-opacity:1;filter:url(#filter3)"
       d="m 33.486557,116.59857 c -0.263268,-0.0429 -0.303391,0.16076 0.688963,-3.4963 0.437599,-1.61266 0.918542,-3.41308 1.068763,-4.00095 0.232896,-0.91139 0.300858,-1.07524 0.461371,-1.11231 0.103533,-0.0239 1.967819,-0.033 4.142864,-0.0202 l 3.954622,0.0232 0.340141,1.08906 c 0.550127,1.76138 0.908542,2.92285 1.383069,4.48193 0.245416,0.80633 0.548339,1.79774 0.673159,2.20315 0.124824,0.4054 0.199167,0.76353 0.165206,0.79585 -0.06412,0.061 -12.510826,0.0963 -12.878158,0.0365 z m 12.628709,-0.29976 c -0.02493,-0.0619 -0.287007,-0.9007 -0.582366,-1.86398 -0.295359,-0.96329 -0.614133,-1.99648 -0.708384,-2.29597 -0.426822,-1.35625 -0.955159,-3.09637 -1.061941,-3.49758 l -0.117057,-0.43981 -3.963774,0.002 -3.963779,0.002 -0.430006,1.65271 c -0.236504,0.90899 -0.721409,2.7344 -1.077569,4.05645 -0.356159,1.32206 -0.647562,2.42474 -0.647562,2.4504 0,0.0257 2.834503,0.0467 6.298893,0.0467 5.236643,0 6.291246,-0.019 6.253545,-0.11255 z m -15.961073,-1.69859 -1.077568,-0.7187 0.0014,-10.69387 c 7.32e-4,-5.881628 0.03043,-10.733679 0.06597,-10.782339 0.03554,-0.04866 0.777141,-0.706031 1.647992,-1.460826 0.870852,-0.754799 1.781287,-1.547678 2.02319,-1.761956 1.294907,-1.147036 1.446972,-1.24527 1.455535,-0.940294 0.0023,0.08063 0.01919,0.54244 0.03762,1.026237 0.01843,0.483794 0.05652,2.971892 0.08466,5.529105 0.02814,2.557209 0.07563,5.356313 0.105552,6.220243 l 0.05439,1.57077 h 5.530556 5.53056 v -6.984687 c 0,-3.841576 0.02473,-7.102493 0.05498,-7.246479 0.03022,-0.143986 0.09951,-0.261414 0.153939,-0.260949 0.05443,3.17e-4 0.564193,0.405727 1.132808,0.900574 0.568616,0.494851 1.684582,1.465206 2.479925,2.156343 l 1.446078,1.256615 -0.01692,10.793673 -0.01692,10.79367 -1.226139,0.62058 c -0.674375,0.34132 -1.271752,0.62058 -1.327503,0.62058 -0.05576,0 -0.23131,-0.40526 -0.390125,-0.90057 -0.158815,-0.49532 -0.544824,-1.6734 -0.857797,-2.61795 -0.312973,-0.94456 -0.688502,-2.09436 -0.834511,-2.55512 -0.146006,-0.46076 -0.414441,-1.29012 -0.596519,-1.84303 l -0.331049,-1.00529 -5.505293,-0.0216 -5.505287,-0.0216 -0.100819,0.35667 c -0.213077,0.75381 -0.871011,2.90543 -1.120937,3.66576 -0.143882,0.43772 -0.426913,1.32363 -0.628957,1.96869 -0.791867,2.52818 -0.979661,3.05771 -1.083815,3.05608 -0.05907,-9.5e-4 -0.592299,-0.32509 -1.184961,-0.72038 z m 1.209516,0.26334 c 0,-0.11305 0.286412,-1.03226 1.096948,-3.52056 0.165096,-0.50683 0.585805,-1.86397 0.934909,-3.01587 0.349104,-1.1519 0.673185,-2.14176 0.720179,-2.19969 0.06737,-0.0831 1.277748,-0.10077 5.722174,-0.0838 l 5.636726,0.0216 0.337871,1.04718 c 0.185832,0.57595 0.45215,1.40531 0.591822,1.84303 0.139672,0.43772 0.392,1.21054 0.560729,1.71738 0.16873,0.50683 0.530272,1.60008 0.803426,2.42945 0.273153,0.82937 0.523589,1.58893 0.556523,1.68793 0.05721,0.17197 0.108866,0.15452 1.159436,-0.39164 l 1.099563,-0.57163 0.02231,-10.63285 0.02231,-10.632861 -0.46215,-0.403114 c -0.254183,-0.221712 -0.877782,-0.764421 -1.385779,-1.206021 -0.507997,-0.441597 -1.200721,-1.05214 -1.539384,-1.356764 -0.338666,-0.304628 -0.783986,-0.695662 -0.989603,-0.868975 l -0.37385,-0.315107 v 7.21494 7.214942 l -5.783686,-0.0215 -5.783684,-0.0215 -0.05446,-3.141539 c -0.02992,-1.72788 -0.06809,-4.329072 -0.08479,-5.780463 -0.0167,-1.451391 -0.05157,-3.265932 -0.07749,-4.032313 l -0.04713,-1.393423 -1.09956,0.962063 c -0.604758,0.529138 -1.663634,1.450739 -2.353058,2.048009 l -1.253498,1.085943 v 10.634003 c 0,5.8487 0.03093,10.63401 0.06874,10.63401 0.0378,0 0.443541,0.2611 0.901639,0.58023 0.855485,0.59597 1.052816,0.68387 1.052817,0.46898 z m 21.430206,-1.42964 c -0.08962,-0.22242 -0.06327,-20.363397 0.02693,-20.589355 0.07076,-0.177241 1.140675,-0.865773 2.249367,-1.44755 0.09676,-0.05078 0.749899,-0.42588 1.451417,-0.833569 0.701519,-0.40769 1.988003,-1.152011 2.858856,-1.654052 0.870849,-0.502041 1.59077,-0.919562 1.599819,-0.927823 0.009,-0.0083 0.06514,-0.824766 0.124652,-1.814458 l 0.108197,-1.799441 0.321291,-0.29939 c 0.176709,-0.164665 0.379762,-0.320759 0.451232,-0.346878 0.07147,-0.02612 1.135013,-0.711335 2.363432,-1.522702 1.228423,-0.811367 2.285447,-1.475211 2.348947,-1.475211 0.0635,0 0.115452,0.06442 0.115452,0.143154 0,0.200254 -0.402658,5.413761 -0.616553,7.982954 -0.216415,2.599476 -0.309409,3.774005 -0.484186,6.115524 -0.07394,0.990632 -0.250802,3.214841 -0.39302,4.942686 -0.142219,1.727841 -0.362301,4.422941 -0.48907,5.989101 -0.151009,1.86558 -0.265962,2.86845 -0.333347,2.90814 -0.05657,0.0333 -0.676826,0.29307 -1.378344,0.57724 -1.207238,0.48901 -2.419277,0.99238 -7.775871,3.22938 -1.252938,0.52324 -2.32737,0.95135 -2.387629,0.95135 -0.06026,0 -0.132966,-0.0581 -0.161578,-0.1291 z m 2.540197,-1.08442 c 1.064371,-0.44722 2.251897,-0.94552 2.638943,-1.10733 0.387043,-0.16181 1.130954,-0.47863 1.653134,-0.70404 0.522177,-0.22542 0.966506,-0.40985 0.987399,-0.40985 0.02088,0 0.297267,-0.1131 0.614163,-0.25133 0.316896,-0.13822 0.608986,-0.25132 0.649092,-0.25132 0.0401,0 0.54381,-0.2016 1.119347,-0.448 0.575537,-0.2464 1.114527,-0.47098 1.197749,-0.49906 0.202937,-0.0685 0.211947,-0.12812 0.375753,-2.48769 0.07837,-1.12886 0.199665,-2.69334 0.269552,-3.47663 0.06989,-0.78329 0.246194,-2.950953 0.391794,-4.817025 0.145597,-1.866071 0.342699,-4.297624 0.438003,-5.403445 0.0953,-1.105821 0.253409,-3.103837 0.351339,-4.440037 0.09793,-1.336202 0.235073,-3.070329 0.304758,-3.85362 0.06969,-0.783289 0.153426,-1.816631 0.186091,-2.296318 l 0.05939,-0.872153 -0.604262,0.404016 c -0.332345,0.222209 -0.920935,0.612025 -1.307981,0.866261 -1.967423,1.292321 -2.644688,1.74519 -3.074044,2.055529 -0.101751,0.07355 -0.151401,0.485219 -0.228297,1.89295 -0.05405,0.989429 -0.113268,1.82208 -0.131607,1.850339 -0.02949,0.04543 -1.69152,1.032053 -2.442383,1.449852 -0.322833,0.179636 -4.306455,2.467053 -5.163248,2.964769 l -0.571771,0.332142 -0.02234,10.23015 -0.02234,10.23015 0.198269,-0.0726 c 0.109048,-0.0399 1.069122,-0.43849 2.133497,-0.88572 z m -28.766902,0.76628 c -0.09543,-0.0617 -0.965193,-0.50071 -1.932806,-0.97563 -0.967613,-0.47492 -2.412434,-1.1918 -3.210714,-1.59308 -0.798281,-0.40128 -2.096639,-1.03584 -2.885241,-1.41014 -0.788601,-0.3743 -1.485143,-0.72847 -1.547869,-0.78706 -0.06273,-0.0586 -0.387318,-0.23846 -0.721315,-0.39973 -0.333997,-0.16126 -0.631816,-0.32521 -0.66182,-0.36432 -0.05396,-0.0704 -0.120418,-0.90595 -0.214211,-2.69344 -0.02659,-0.50683 -0.104373,-1.71318 -0.172841,-2.68077 -0.267394,-3.77881 -0.397198,-5.69778 -0.527002,-7.791019 -0.07429,-1.197973 -0.213371,-3.290237 -0.309074,-4.649474 -0.216204,-3.070667 -0.613042,-9.18837 -0.61334,-9.455325 -1.73e-4,-0.153925 0.03734,-0.188909 0.167733,-0.156436 0.148395,0.03696 1.344486,0.744258 3.922407,2.319489 l 0.791683,0.483752 0.154598,1.330845 c 0.08503,0.731967 0.189135,1.38906 0.231345,1.460213 0.04221,0.07115 0.128514,0.53276 0.191786,1.0258 0.06327,0.493036 0.137295,0.9252 0.164496,0.960362 0.06118,0.07908 1.033492,0.688446 2.028665,1.271389 0.411235,0.24089 1.067524,0.632934 1.45842,0.871212 0.390896,0.238278 1.489356,0.898468 2.441023,1.467093 l 1.730302,1.033864 -9e-5,5.961292 c -1.29e-4,8.494643 -0.09226,14.883263 -0.214638,14.883263 -0.05389,0 -0.176065,-0.0505 -0.271497,-0.11215 z m 0.222331,-3.72763 c 0,-1.92757 0.02402,-6.49851 0.05337,-10.157636 l 0.05338,-6.652957 -0.776014,-0.46076 c -0.426807,-0.253419 -0.836771,-0.490044 -0.911031,-0.525839 -0.07426,-0.03579 -0.420084,-0.243134 -0.768496,-0.460759 -0.348412,-0.217621 -1.357808,-0.827809 -2.243101,-1.355972 -2.500411,-1.49173 -3.060514,-1.848873 -3.067774,-1.956143 -0.0037,-0.05469 -0.02208,-0.174835 -0.04084,-0.266986 -0.01876,-0.09215 -0.05815,-0.426843 -0.08752,-0.743755 -0.02938,-0.316912 -0.08816,-0.637349 -0.130622,-0.712082 -0.06841,-0.120391 -0.233675,-1.168073 -0.398062,-2.523444 l -0.05588,-0.460759 -1.098627,-0.670196 C 16.71408,82.072257 15.959699,81.61045 15.641923,81.414629 15.324146,81.218804 15.04746,81.058587 15.027065,81.058587 c -0.02039,0 -0.20255,-0.106681 -0.40479,-0.237068 -0.666261,-0.429546 -0.621788,-0.462377 -0.558651,0.412404 0.04989,0.691254 0.307129,4.627775 0.587985,8.997951 0.05034,0.783291 0.16818,2.517418 0.261867,3.85362 0.09369,1.336199 0.233277,3.447312 0.310201,4.69136 0.07692,1.244046 0.236704,3.630646 0.355068,5.303536 0.118363,1.6729 0.215205,3.11148 0.215205,3.19685 0,0.10992 0.211787,0.25867 0.72571,0.50971 0.39914,0.19497 0.748492,0.38785 0.776338,0.42863 0.02785,0.0408 0.938281,0.50178 2.02319,1.02445 1.921588,0.92574 6.14857,3.01952 6.94257,3.43891 0.217713,0.115 0.42553,0.21017 0.461815,0.21149 0.03629,0.001 0.06597,-1.57471 0.06597,-3.50228 z m 12.930822,-8.39127 -3.298679,-0.0419 -0.02158,-9.44424 -0.02158,-9.444236 -0.575031,-3.331348 c -0.316269,-1.83224 -0.692506,-4.010762 -0.836083,-4.841159 -0.29915,-1.730178 -0.297862,-1.715499 -0.150565,-1.715499 0.06077,0 0.961307,0.389258 2.001199,0.865016 1.039891,0.475758 2.115719,0.965767 2.390724,1.088913 l 0.500009,0.223897 0.863446,-0.323536 c 0.474893,-0.177948 1.722811,-0.667957 2.773146,-1.088913 1.050337,-0.420956 1.950876,-0.765377 2.001198,-0.765377 0.158174,0 0.103679,0.414762 -0.342127,2.603914 -0.42644,2.094047 -0.65103,3.240406 -1.155742,5.899179 l -0.254446,1.340392 -0.0017,9.478274 -0.0017,9.478273 -0.285887,0.0301 c -0.157236,0.0166 -1.770291,0.0113 -3.584564,-0.0118 z m 3.606557,-9.599254 v -9.431702 l 0.443897,-2.233872 c 0.244146,-1.228631 0.556803,-2.79935 0.694793,-3.490487 0.137993,-0.691141 0.337379,-1.727845 0.443083,-2.303797 0.105704,-0.575948 0.224135,-1.144627 0.263183,-1.263735 l 0.071,-0.216558 -0.804038,0.312651 c -0.442222,0.171957 -1.239467,0.490205 -1.771654,0.707219 -1.297359,0.529033 -2.869102,1.130619 -2.95393,1.130619 -0.0668,0 -0.952189,-0.395518 -3.455606,-1.543685 -0.670788,-0.307648 -1.232319,-0.547262 -1.247848,-0.532472 -0.01553,0.01479 0.186728,1.270217 0.44946,2.789841 0.686254,3.96926 0.830747,4.775415 0.990726,5.527503 0.125532,0.590162 0.145783,1.823188 0.169564,10.325186 l 0.027,9.654993 h 3.340183 3.340183 z m 2.287085,-8.489887 c 0,-0.134865 0.178091,-1.143301 0.395756,-2.240965 0.217669,-1.097665 0.533943,-2.693175 0.702832,-3.545581 0.168889,-0.852402 0.487082,-2.492284 0.707094,-3.644181 0.220012,-1.151896 0.419026,-2.178963 0.442258,-2.282364 0.03222,-0.143362 0.276871,-0.295521 1.030294,-0.640752 0.543431,-0.249008 1.819323,-0.837793 2.835317,-1.308406 1.015994,-0.470616 2.361853,-1.092146 2.990801,-1.381179 0.628947,-0.289033 2.133147,-0.985373 3.342662,-1.547421 1.209515,-0.562049 2.399309,-1.112297 2.643983,-1.222774 l 0.444869,-0.200867 0.336408,-1.343815 c 0.185024,-0.739099 0.366939,-1.361786 0.404254,-1.38375 0.03732,-0.02196 0.195723,-0.558323 0.352015,-1.19191 0.156292,-0.633587 0.427796,-1.698604 0.603341,-2.366704 l 0.319177,-1.214728 h 4.221265 c 3.692658,0 4.221524,0.01574 4.223356,0.125662 0.0023,0.137569 0.0038,0.129669 -0.757735,3.937392 -0.290279,1.451391 -0.605895,3.053575 -0.701372,3.560409 -0.09548,0.506835 -0.313159,1.618939 -0.483737,2.471343 -1.05972,5.295573 -1.76955,8.887356 -1.887382,9.550272 -0.20447,1.150339 -0.163354,1.092615 -1.230856,1.727889 -0.532257,0.316748 -1.195093,0.714176 -1.472968,0.883175 -0.769474,0.467982 -2.861445,1.697832 -2.968582,1.7452 -0.05211,0.02305 -0.540147,0.305776 -1.084535,0.628309 -0.544385,0.322529 -1.195921,0.707472 -1.447856,0.855425 l -0.458068,0.269004 -6.751296,0.0033 -6.751295,0.0033 z M 60.50651,82.042934 c 0.80326,-0.472278 2.002795,-1.179123 2.665627,-1.570766 0.662836,-0.391646 1.307982,-0.768831 1.433664,-0.838195 0.125678,-0.06936 0.564971,-0.336125 0.976204,-0.592812 0.411236,-0.256683 0.969336,-0.59531 1.240222,-0.752502 l 0.492521,-0.285801 0.462838,-2.304813 c 0.475778,-2.369233 0.564685,-2.816618 0.874237,-4.399166 0.09914,-0.506835 0.360788,-1.826281 0.581442,-2.932101 1.076682,-5.395858 1.60613,-8.090276 1.893071,-9.634047 0.102768,-0.55291 0.202095,-1.051733 0.220727,-1.108495 0.0265,-0.08073 -0.836327,-0.102912 -3.961843,-0.101865 l -3.995717,0.0013 -0.07773,0.269413 c -0.04275,0.148178 -0.187633,0.721795 -0.321952,1.274706 -0.134323,0.55291 -0.355007,1.401125 -0.490413,1.884922 -0.13541,0.483796 -0.274267,1.030424 -0.308581,1.214728 -0.03431,0.184303 -0.09339,0.372795 -0.131297,0.418871 -0.05575,0.06777 -0.69983,2.31711 -0.69983,2.444046 0,0.03332 -0.973142,0.489304 -5.321868,2.49366 -3.32801,1.533902 -5.649569,2.612765 -6.770854,3.146517 l -1.14394,0.544532 -0.327964,1.675488 c -0.180379,0.921515 -0.412127,2.090167 -0.514989,2.597002 -0.102864,0.506835 -0.339789,1.713185 -0.526502,2.68078 -0.186709,0.967591 -0.460092,2.381284 -0.607517,3.141535 -0.147428,0.760251 -0.268073,1.429398 -0.268106,1.486993 -4.7e-5,0.08284 1.375368,0.104718 6.584012,0.104718 h 6.584066 z m -11.266376,-2.501216 0.0244,-1.181774 0.527788,-0.1954 c 0.290286,-0.107473 0.963215,-0.351153 1.495402,-0.541512 0.532187,-0.19036 1.40304,-0.509168 1.935227,-0.70846 0.532184,-0.199292 1.501999,-0.557188 2.155137,-0.795324 0.653138,-0.238135 1.484404,-0.541986 1.84726,-0.675226 0.362853,-0.133237 1.392042,-0.511008 2.287082,-0.839487 0.895043,-0.328479 2.003399,-0.721534 2.463015,-0.873458 0.459617,-0.151921 1.044949,-0.356057 1.300738,-0.453635 0.82069,-0.313075 0.810417,-0.323017 0.810417,0.784286 v 0.961702 l -0.329869,0.159197 c -0.32414,0.156433 -0.685493,0.296521 -2.266658,0.878723 -0.436288,0.160644 -1.505061,0.574033 -2.375049,0.918637 -0.869992,0.344608 -2.215146,0.871982 -2.989235,1.171949 -0.774092,0.299966 -1.803278,0.70226 -2.287085,0.893984 -2.710134,1.073991 -4.314572,1.677571 -4.459334,1.677571 -0.152974,0 -0.162057,-0.07709 -0.139243,-1.181773 z m 2.531403,0.05415 c 1.136945,-0.444367 2.740103,-1.074228 3.562575,-1.399689 0.822469,-0.325461 1.911034,-0.75275 2.419031,-0.949534 0.507997,-0.19678 1.517391,-0.591491 2.2431,-0.877127 0.725712,-0.285639 1.556978,-0.605566 1.84726,-0.710952 0.290285,-0.105386 0.854359,-0.315383 1.2535,-0.466664 l 0.725709,-0.275054 v -0.776899 -0.776903 l -0.241905,0.06751 c -0.133046,0.03713 -0.607205,0.204143 -1.053682,0.371138 -0.446478,0.166996 -0.832051,0.303627 -0.856823,0.303627 -0.02477,0 -0.827207,0.287824 -1.783181,0.639609 -0.955977,0.351786 -2.03502,0.743248 -2.397872,0.869912 -0.658694,0.229935 -1.744176,0.627498 -2.990805,1.095397 -0.362852,0.136188 -1.629545,0.600411 -2.81487,1.031601 l -2.15514,0.783985 -0.02487,0.983188 c -0.01958,0.774059 -9.98e-4,0.973787 0.08796,0.938993 0.06206,-0.02432 1.043067,-0.407768 2.180012,-0.852136 z m -0.703011,-5.930363 6.65e-4,-1.11001 1.164826,-0.435391 c 0.640653,-0.239466 2.431518,-0.909649 3.979699,-1.489295 2.681123,-1.003823 3.420778,-1.278871 7.453402,-2.771599 0.954628,-0.353369 1.79265,-0.621673 1.862264,-0.596232 0.06962,0.02544 0.112956,0.114562 0.09631,0.198045 -0.01666,0.08348 -0.03411,0.56647 -0.03881,1.073304 l -0.0085,0.921519 -1.559562,0.584238 c -0.857757,0.321329 -1.856439,0.684975 -2.219295,0.808102 -0.362856,0.123127 -0.956616,0.335837 -1.319472,0.47269 -0.362856,0.136853 -1.589962,0.593977 -2.726906,1.015832 -1.136945,0.421856 -2.245301,0.840674 -2.463016,0.930707 -0.824068,0.340786 -4.007124,1.508084 -4.112353,1.508093 -0.08247,3e-6 -0.109777,-0.277482 -0.109248,-1.110003 z m 1.981513,0.181171 c 1.569446,-0.589643 2.847206,-1.0675 6.814258,-2.548391 1.136945,-0.42442 2.463013,-0.913344 2.94682,-1.086494 0.483806,-0.173154 1.255698,-0.452049 1.715311,-0.619767 l 0.835668,-0.304944 0.02507,-0.910055 c 0.01968,-0.714711 6.65e-4,-0.90093 -0.08797,-0.867542 -1.066868,0.401248 -2.734979,1.022303 -2.971894,1.106469 -0.169331,0.06016 -1.416232,0.524904 -2.770888,1.032774 -1.35466,0.507867 -3.036984,1.136967 -3.738506,1.397995 -0.701518,0.261028 -1.997521,0.744986 -2.880004,1.07546 l -1.604517,0.600863 -9.97e-4,0.858687 c -3.33e-4,0.472275 0.03019,0.858684 0.06815,0.858684 0.03794,0 0.780146,-0.267183 1.64934,-0.593739 z M 21.511655,82.736158 C 20.921794,82.317305 19.07685,81.115606 18.960676,81.074583 18.837716,81.031164 17.448342,80.125363 16.309013,79.345839 16.035924,79.158991 15.382786,78.726424 14.857595,78.384581 13.362034,77.411129 13.342769,77.39531 13.29145,77.098653 13.2657,76.949784 13.105878,76.092864 12.936297,75.194383 12.766715,74.295906 12.588338,73.334593 12.539904,73.05814 12.491474,72.781683 12.334338,71.93347 12.190723,71.173216 11.900525,69.636997 11.604594,68.012117 11.214252,65.811661 11.071215,65.005333 10.876747,63.949777 10.782099,63.46598 10.687449,62.982184 10.451557,61.700437 10.257891,60.617653 10.064224,59.53487 9.8267091,58.234885 9.7300796,57.728797 9.6334506,57.22271 9.5851201,56.779372 9.622679,56.743602 c 0.037559,-0.03577 1.906026,-0.05523 4.152149,-0.04325 l 4.08386,0.02179 0.40572,1.968697 c 0.223146,1.082783 0.476267,2.326831 0.562493,2.764552 0.08622,0.437721 0.184674,0.814705 0.218774,0.837744 0.0341,0.02304 0.165796,0.529575 0.292655,1.125638 0.16873,0.7928 0.27298,1.107662 0.388315,1.172814 0.170833,0.0965 1.963699,0.984224 4.951741,2.451811 1.040184,0.510889 2.306877,1.134477 2.814873,1.385751 0.507997,0.251274 1.754897,0.864179 2.77089,1.362009 1.015994,0.497833 1.85646,0.91126 1.867703,0.918729 0.02772,0.01843 0.433433,2.001693 0.600337,2.934667 0.125944,0.704014 0.311048,1.641519 1.050332,5.319668 0.162067,0.80633 0.321951,1.654546 0.355298,1.884924 0.03335,0.230378 0.135329,0.771732 0.226626,1.203007 0.0913,0.431271 0.165996,0.798831 0.165996,0.816797 0,0.01795 -2.879747,0.03055 -6.399437,0.02802 -6.102282,-0.0044 -6.409649,-0.0119 -6.619349,-0.160808 z M 34.237943,82.54558 c -0.02622,-0.10367 -0.170889,-0.810515 -0.321482,-1.570766 -0.150595,-0.760254 -0.371641,-1.872357 -0.491215,-2.471343 -0.119574,-0.598986 -0.277596,-1.409504 -0.351159,-1.801147 -0.07356,-0.391646 -0.270797,-1.409505 -0.438296,-2.26191 -0.167499,-0.852402 -0.349788,-1.794862 -0.405086,-2.094357 -0.0553,-0.299491 -0.144346,-0.747402 -0.197884,-0.995353 l -0.09734,-0.450817 -0.791683,-0.389474 c -0.435425,-0.214207 -1.583366,-0.780217 -2.550978,-1.257792 -0.967613,-0.477578 -2.412434,-1.187354 -3.210714,-1.57728 -0.798281,-0.389927 -1.966013,-0.965541 -2.594961,-1.279143 -0.628948,-0.313601 -1.65462,-0.818246 -2.279271,-1.121433 -0.62465,-0.303187 -1.147067,-0.562049 -1.160926,-0.575247 -0.01386,-0.0132 -0.108546,-0.474227 -0.210416,-1.024507 -0.10187,-0.550281 -0.216606,-1.020344 -0.254969,-1.044585 -0.03836,-0.02424 -0.19455,-0.6661 -0.347084,-1.426352 -0.152534,-0.760252 -0.422454,-2.051424 -0.599822,-2.869271 l -0.322489,-1.486994 h -3.905841 c -3.677048,0 -3.9034055,0.0086 -3.8642577,0.146605 0.02287,0.08063 0.1042465,0.485891 0.1808337,0.900574 0.35234,1.907736 0.769344,4.212039 0.803505,4.440039 0.02071,0.138228 0.195418,1.099538 0.388239,2.136245 0.19282,1.036707 0.530085,2.865082 0.749477,4.063054 0.219392,1.197973 0.498169,2.70591 0.619503,3.350972 0.121336,0.645062 0.280542,1.530976 0.353792,1.968697 0.22659,1.354028 0.590142,3.22042 0.647135,3.322238 0.02984,0.05331 0.252175,0.225495 0.494078,0.382634 0.241903,0.157139 0.855458,0.562945 1.363454,0.90179 2.634464,1.757256 3.452666,2.292277 3.716,2.429893 0.132765,0.06938 0.822375,0.51256 1.532467,0.984838 l 1.291077,0.858687 h 6.151995 6.151995 z m -3.800812,-2.701395 c -0.146763,-0.06142 -0.483228,-0.205896 -0.7477,-0.321066 -0.264472,-0.11517 -0.837116,-0.358672 -1.272542,-0.541113 -1.197394,-0.501702 -3.185566,-1.346179 -3.810614,-1.618558 -0.305754,-0.13324 -0.569016,-0.242255 -0.585027,-0.242255 -0.01601,0 -0.379403,-0.152601 -0.807537,-0.339114 -0.428134,-0.186515 -0.857594,-0.371701 -0.954356,-0.411524 -0.512702,-0.211013 -2.105683,-0.89363 -2.665594,-1.142245 -0.353322,-0.156886 -0.677406,-0.28525 -0.720185,-0.28525 -0.111656,0 -2.491902,-1.006413 -2.589225,-1.094774 -0.06625,-0.06014 -0.299331,-1.420108 -0.311311,-1.816383 -0.0058,-0.192826 0.32062,-0.108166 1.724463,0.447211 0.767316,0.303557 1.672209,0.659807 2.010874,0.79166 0.338664,0.131853 2.040783,0.809803 3.782485,1.506551 1.741702,0.696748 3.503197,1.399955 3.914432,1.562682 0.411236,0.162725 1.004998,0.40371 1.319472,0.535518 0.314474,0.131809 0.94782,0.385722 1.407436,0.564253 l 0.835666,0.3246 0.02454,1.102572 c 0.02722,1.222717 0.02801,1.22133 -0.55528,0.977235 z m 0.369203,-1.857576 c -0.01979,-0.01884 -0.466559,-0.206267 -0.992807,-0.416479 -0.526248,-0.210212 -1.313071,-0.524557 -1.748497,-0.698547 -0.435425,-0.173989 -1.385445,-0.550618 -2.111155,-0.83695 -0.725709,-0.286336 -1.458016,-0.579985 -1.627348,-0.65256 -0.169332,-0.07257 -0.664134,-0.2726 -1.099559,-0.44451 -0.435426,-0.171906 -1.227109,-0.487691 -1.759296,-0.701744 -0.532187,-0.214053 -1.363454,-0.541828 -1.84726,-0.728392 -0.483806,-0.18656 -1.432583,-0.55993 -2.108393,-0.829709 -0.67581,-0.269779 -1.237173,-0.48248 -1.247473,-0.472671 -0.0103,0.0098 0.02804,0.349528 0.0852,0.754929 l 0.103931,0.737092 0.571771,0.234092 c 2.723775,1.115162 4.93862,2.041591 9.016389,3.771387 l 4.750098,2.015 0.02519,-0.84833 c 0.01386,-0.466579 0.009,-0.863753 -0.0108,-0.882608 z M 28.724766,73.861968 C 28.31353,73.683323 27.581224,73.367947 27.097418,73.161126 26.613611,72.954308 25.980265,72.68179 25.689981,72.555535 25.399697,72.42928 24.330926,71.969372 23.314932,71.533516 22.298939,71.097662 21.091623,70.578476 20.632007,70.379767 20.172391,70.181058 19.281748,69.810642 18.6528,69.556621 c -1.643656,-0.663847 -3.150297,-1.323607 -3.269519,-1.431726 -0.0613,-0.05559 -0.127986,-0.541196 -0.165227,-1.203224 -0.05451,-0.968995 -0.04525,-1.11001 0.07291,-1.11001 0.131815,0 1.285637,0.47793 2.953989,1.223585 0.453014,0.20247 0.857044,0.368127 0.897845,0.368127 0.07153,0 1.266448,0.50557 2.795318,1.182702 0.403886,0.17888 0.747904,0.325236 0.764485,0.325236 0.01658,0 0.37885,0.155082 0.805045,0.344628 0.426194,0.189546 1.289493,0.56366 1.918441,0.831369 0.628948,0.267705 1.677928,0.718104 2.331066,1.000881 0.653139,0.282776 1.336326,0.572614 1.518194,0.644083 0.390449,0.153435 0.395236,0.169291 0.444536,1.472472 0.03276,0.865989 0.02013,0.984208 -0.105089,0.983188 -0.07828,-6.33e-4 -0.478793,-0.147323 -0.890028,-0.325964 z m 0.715815,-0.884733 -0.05608,-0.91865 -3.218562,-1.385146 c -1.770209,-0.761828 -3.452535,-1.487342 -3.738503,-1.612251 -1.504798,-0.657284 -2.040179,-0.884053 -3.246849,-1.375254 -0.725709,-0.295415 -1.438224,-0.591463 -1.583366,-0.657885 -0.947808,-0.433745 -2.186903,-0.962736 -2.208007,-0.942638 -0.0138,0.01314 0.01118,0.381027 0.05549,0.81753 0.04432,0.436503 0.08165,0.854972 0.08296,0.929931 0.0014,0.08213 0.172345,0.205921 0.430103,0.311523 0.40444,0.165698 0.798291,0.335218 2.189232,0.942285 0.326569,0.142529 0.831267,0.346957 1.121551,0.454284 0.290284,0.107327 1.062174,0.428916 1.715313,0.714644 1.270136,0.555639 2.070227,0.900605 4.706115,2.029065 0.919232,0.393533 2.146341,0.920629 2.726908,1.171321 0.580568,0.25069 1.061021,0.45222 1.067674,0.447845 0.0067,-0.0044 -0.01314,-0.421349 -0.04398,-0.926604 z m 8.036681,-1.832478 C 34.7619,69.823231 29.389823,67.223516 24.810334,65.014836 c -1.983606,-0.95669 -3.661042,-1.787491 -3.727635,-1.846224 -0.113958,-0.100506 -0.978481,-4.727722 -0.978481,-5.237157 0,-0.205836 0.0655,-0.236385 1.297481,-0.605184 2.109468,-0.631477 3.295591,-0.934312 5.783683,-1.476664 1.156508,-0.252095 4.221653,-0.738728 5.541781,-0.879832 3.172844,-0.339136 8.162148,-0.442981 10.995596,-0.228856 5.269608,0.398226 10.361447,1.36767 15.305874,2.914112 0.96761,0.302635 1.775929,0.565387 1.79626,0.583893 0.04986,0.04538 -0.212765,1.355968 -0.623034,3.109175 -0.185658,0.79339 -0.338147,1.52851 -0.338858,1.6336 -6.65e-4,0.105089 -0.0502,0.277903 -0.109957,0.38403 -0.111179,0.197431 -0.297868,0.285497 -4.023092,1.897777 -1.672915,0.72404 -4.274835,1.85794 -7.696917,3.35427 -5.674617,2.481264 -8.210017,3.561957 -8.346427,3.557591 -0.05401,-0.0019 -1.048211,-0.465503 -2.209346,-1.03061 z m 4.882044,-0.327551 c 0.895043,-0.391389 1.895534,-0.829538 2.223315,-0.97366 0.327781,-0.144123 0.610709,-0.262041 0.628732,-0.262041 0.01802,0 0.501936,-0.210782 1.075365,-0.468406 0.57343,-0.257624 1.240518,-0.557082 1.482423,-0.665462 0.414165,-0.18556 3.276176,-1.423742 5.321868,-2.302382 0.507997,-0.218188 1.655936,-0.717219 2.550979,-1.108957 2.282867,-0.999155 2.696979,-1.179209 3.314965,-1.441328 l 0.544076,-0.230769 0.174368,-0.724023 c 0.284221,-1.180167 0.912937,-4.2095 0.87952,-4.237774 -0.05654,-0.04783 -2.742339,-0.870876 -3.81337,-1.168576 -2.160243,-0.600454 -4.891132,-1.196778 -7.48224,-1.633843 -0.630753,-0.106394 -2.899855,-0.381721 -4.173091,-0.506351 -5.210612,-0.510039 -11.023389,-0.25692 -16.39372,0.713869 -3.196983,0.577915 -8.176881,1.884132 -8.294315,2.175582 -0.04626,0.114806 0.139057,1.317224 0.565524,3.669384 l 0.240783,1.328027 2.154782,1.044963 c 2.431294,1.179058 8.848567,4.283069 13.318542,6.442131 l 2.983035,1.440847 0.535556,-0.189805 c 0.294555,-0.104392 1.267863,-0.510033 2.162903,-0.901426 z m -3.259644,-5.333454 c -0.553654,-0.368053 -1.184776,-0.787499 -1.402488,-0.932101 -0.217715,-0.144603 -1.523991,-1.007079 -2.902839,-1.916614 -1.378848,-0.909536 -2.519794,-1.716681 -2.535437,-1.793655 -0.0264,-0.129934 0.54827,-0.139954 8.026786,-0.139954 7.613062,0 8.055217,0.008 8.055071,0.146605 -8.6e-5,0.08063 -0.09563,0.203153 -0.212325,0.272266 -0.353311,0.209256 -1.19502,0.759744 -2.012709,1.316337 -0.425572,0.289684 -0.788488,0.526698 -0.806477,0.526698 -0.01799,0 -0.778148,0.486816 -1.689243,1.081813 -2.353432,1.536925 -2.479825,1.620773 -2.741186,1.8185 -0.512628,0.387814 -0.677139,0.352687 -1.779153,-0.379895 z m 2.218217,-0.237568 c 0.553315,-0.357087 2.248921,-1.459767 3.768018,-2.450398 l 2.761992,-1.801148 -3.749284,-0.02184 c -2.062103,-0.01201 -5.460903,-0.01201 -7.552888,0 l -3.803605,0.02184 0.388367,0.250959 c 0.213602,0.138028 1.041505,0.680661 1.839786,1.205852 0.798281,0.525191 1.748301,1.150127 2.111154,1.388746 0.362855,0.23862 1.114955,0.729771 1.671332,1.091447 0.556378,0.361676 1.105997,0.726488 1.221379,0.810693 0.115379,0.0842 0.238571,0.1531 0.273752,0.1531 0.03519,0 0.516681,-0.292162 1.069997,-0.649251 z"
       id="path1"
       transform="matrix(0.25282826,0,0,0.25161507,6.6659565,40.26964)" /></g></svg>
